<svg width="251" height="54" viewBox="0 0 251 54" fill="none" xmlns="http://www.w3.org/2000/svg">
<path d="M75.58 19.632H72.142V8.508H79.882V9.768H73.636V18.372H75.688C77.56 18.372 79.468 18.3 81.016 18.048V19.29C79.468 19.524 77.524 19.632 75.58 19.632ZM78.82 14.448V13.17H83.104V7.662H84.58V22.296H83.104V14.448H78.82ZM107.096 13.296V14.556H104.432V22.296H102.938V18.966C101.012 19.29 98.6363 19.542 96.2423 19.542H92.1923V8.418H93.6863V18.282H96.3683C98.6363 18.282 100.976 18.066 102.938 17.706V7.662H104.432V13.296H107.096ZM110.902 11.19C110.902 8.76 113.008 6.87 115.708 6.87C118.408 6.87 120.496 8.76 120.496 11.19C120.496 12.612 119.794 13.818 118.678 14.592H123.214V15.87H108.184V14.592H112.738C111.622 13.818 110.902 12.612 110.902 11.19ZM112.396 11.316C112.396 13.116 113.818 14.484 115.708 14.484C117.58 14.484 119.002 13.116 119.002 11.316C119.002 9.516 117.58 8.148 115.708 8.148C113.818 8.148 112.396 9.516 112.396 11.316ZM121.99 21.504V22.764H109.75V17.67H111.244V21.504H121.99ZM142.184 21.342V22.62H130.448V17.706H131.942V21.342H142.184ZM144.254 11.658V12.936H141.68V18.264H140.186V7.572H141.68V11.658H144.254ZM135.452 7.824H136.946V16.014H129.278V7.824H130.772V10.578H135.452V7.824ZM130.772 11.838V14.754H135.452V11.838H130.772ZM149.77 19.812H146.566V13.35H151.948V9.606H146.566V8.328H153.424V14.61H148.042V18.534H149.896C151.822 18.534 153.73 18.408 155.26 18.174V19.434C153.712 19.668 151.804 19.812 149.77 19.812ZM157.672 16.176H154.54V14.916H157.672V11.946H154.54V10.686H157.672V7.662H159.166V22.296H157.672V16.176ZM166.878 7.734V8.976C166.878 11.478 168.048 13.422 170.172 14.592L169.326 15.69C167.94 14.898 166.842 13.638 166.23 12.396C165.6 13.926 164.376 15.294 162.936 16.122L162.108 15.024C164.196 13.872 165.384 11.91 165.384 9.39V7.734H166.878ZM176.436 7.572V16.068H174.942V12.162H172.566V15.294H171.072V7.662H172.566V10.884H174.942V7.572H176.436ZM166.734 19.704C166.734 17.544 168.696 15.87 171.234 15.87C173.79 15.87 175.752 17.544 175.752 19.704C175.752 21.882 173.79 23.556 171.234 23.556C168.696 23.556 166.734 21.882 166.734 19.704ZM168.228 19.704C168.228 21.18 169.506 22.296 171.234 22.296C172.962 22.296 174.258 21.18 174.258 19.704C174.258 18.246 172.962 17.13 171.234 17.13C169.506 17.13 168.228 18.246 168.228 19.704ZM179.558 8.346H183.788V7.05H185.264V8.346H189.44V9.57H187.676C188.216 9.948 188.54 10.452 188.54 10.992C188.54 12.126 187.154 13.008 185.264 13.188V14.304C187.244 14.286 189.224 14.178 190.97 13.926V7.572H192.464V10.974H195.038V12.234H192.464V15.942H190.97V15.168C189.134 15.402 186.812 15.564 184.49 15.564H179.486V14.304H183.788V13.188C181.898 13.008 180.53 12.126 180.53 10.992C180.53 10.452 180.854 9.948 181.394 9.57H179.558V8.346ZM182.726 21.738H192.878V22.944H181.232V19.254H190.97V18.03H181.232V16.788H192.464V20.46H182.726V21.738ZM182.024 10.794C182.024 11.514 183.104 12.018 184.544 12.018C185.984 12.018 187.064 11.514 187.064 10.794C187.064 10.074 185.984 9.57 184.544 9.57C183.104 9.57 182.024 10.074 182.024 10.794ZM199.149 10.596C199.149 8.508 201.147 6.87 203.739 6.87C206.313 6.87 208.311 8.508 208.311 10.596C208.311 11.748 207.717 12.756 206.763 13.404H211.245V14.682H196.215V13.404H200.697C199.743 12.756 199.149 11.748 199.149 10.596ZM197.781 16.14H209.679V20.136H199.275V21.702H210.201V22.944H197.781V18.912H208.185V17.418H197.781V16.14ZM200.643 10.758C200.643 12.234 201.975 13.35 203.739 13.35C205.485 13.35 206.817 12.234 206.817 10.758C206.817 9.264 205.485 8.148 203.739 8.148C201.975 8.148 200.643 9.264 200.643 10.758ZM217.616 11.082C217.616 8.94 219.506 7.284 221.936 7.284C224.402 7.284 226.274 8.94 226.274 11.082C226.274 13.242 224.402 14.916 221.936 14.916C219.506 14.916 217.616 13.242 217.616 11.082ZM228.776 22.296V17.004C226.958 17.256 224.69 17.4 222.494 17.4V22.116H220.982V17.4H216.986V16.14H222.44C224.564 16.14 226.814 16.014 228.776 15.744V7.662H230.27V22.296H228.776ZM219.11 11.082C219.11 12.54 220.316 13.638 221.936 13.638C223.592 13.638 224.78 12.54 224.78 11.082C224.78 9.66 223.592 8.544 221.936 8.544C220.316 8.544 219.11 9.66 219.11 11.082ZM234.327 12.918C234.327 11.82 234.849 10.866 235.677 10.218H233.463V8.976H237.567V7.05H239.061V8.976H243.093V10.218H240.969C241.797 10.866 242.319 11.82 242.319 12.918C242.319 14.934 240.573 16.464 238.323 16.464C236.073 16.464 234.327 14.934 234.327 12.918ZM247.143 21.342V22.62H235.407V17.706H236.901V21.342H247.143ZM235.803 12.738C235.803 14.16 236.901 15.222 238.323 15.222C239.763 15.222 240.843 14.16 240.843 12.738C240.843 11.316 239.763 10.218 238.323 10.218C236.901 10.218 235.803 11.316 235.803 12.738ZM249.213 11.838V13.098H246.639V18.264H245.145V7.572H246.639V11.838H249.213ZM72.034 32.968H84.724V36.46C84.724 38.188 84.58 40.348 84.364 42.004H81.862C82.06 40.33 82.186 38.332 82.186 36.676V35.074H72.034V32.968ZM86.218 43.948V46.054H70.684V43.948H75.958V37.792H78.478V43.948H86.218ZM91.2477 44.65C91.2477 42.364 93.3717 40.618 96.1437 40.618C98.9337 40.618 101.076 42.364 101.076 44.65C101.076 46.936 98.9337 48.682 96.1437 48.682C93.3717 48.682 91.2477 46.936 91.2477 44.65ZM93.7677 44.65C93.7677 45.748 94.7757 46.558 96.1437 46.558C97.5297 46.558 98.5377 45.748 98.5377 44.65C98.5377 43.552 97.5297 42.724 96.1437 42.724C94.7757 42.724 93.7677 43.552 93.7677 44.65ZM87.9717 36.586C87.9717 34.264 89.9877 32.5 92.6157 32.5C95.2257 32.5 97.2237 34.264 97.2237 36.586C97.2237 38.89 95.2257 40.654 92.6157 40.654C89.9877 40.654 87.9717 38.89 87.9717 36.586ZM90.4737 36.586C90.4737 37.738 91.3737 38.584 92.6157 38.584C93.8397 38.584 94.7217 37.738 94.7217 36.586C94.7217 35.434 93.8397 34.588 92.6157 34.588C91.3737 34.588 90.4737 35.434 90.4737 36.586ZM103.686 33.94V36.046H101.364V37.45H103.686V39.52H101.364V41.05H98.8437V32.41H101.364V33.94H103.686ZM118.867 32.5V47.44H116.347V32.5H118.867ZM104.953 38.89C104.953 36.118 107.131 33.994 109.939 33.994C112.765 33.994 114.943 36.118 114.943 38.89C114.943 41.644 112.765 43.768 109.939 43.768C107.131 43.768 104.953 41.644 104.953 38.89ZM107.455 38.89C107.455 40.438 108.517 41.626 109.939 41.626C111.379 41.626 112.459 40.438 112.459 38.89C112.459 37.306 111.379 36.136 109.939 36.136C108.517 36.136 107.455 37.306 107.455 38.89ZM136.155 32.5V47.458H133.671V40.096H132.483V47.206H129.999V44.596C128.793 44.812 127.227 44.902 125.733 44.902H122.277V33.31H128.883V35.434H124.779V42.796H125.895C127.245 42.796 128.793 42.706 129.999 42.526V32.59H132.483V37.99H133.671V32.5H136.155ZM141.311 44.956C141.311 44.092 141.671 43.3 142.301 42.67H138.395V40.708H144.893V39.718H139.907V32.41H152.435V34.372H142.427V35.146H152.255V37H142.427V37.792H152.759V39.718H147.431V40.708H153.929V42.67H150.041C150.653 43.3 151.031 44.092 151.031 44.956C151.031 47.062 148.907 48.664 146.171 48.664C143.435 48.664 141.311 47.062 141.311 44.956ZM143.813 44.668C143.813 45.784 144.821 46.63 146.171 46.63C147.503 46.63 148.511 45.784 148.511 44.668C148.511 43.534 147.503 42.688 146.171 42.688C144.821 42.688 143.813 43.534 143.813 44.668ZM159.283 44.992C159.283 42.904 161.407 41.32 164.161 41.32C166.915 41.32 169.039 42.904 169.039 44.992C169.039 47.062 166.915 48.664 164.161 48.664C161.407 48.664 159.283 47.062 159.283 44.992ZM160.237 40.96H156.313V35.794H161.551V34.66H156.313V32.662H164.053V37.756H158.815V38.962H160.399C162.037 38.962 163.711 38.926 165.313 38.764V40.744C163.765 40.906 162.001 40.96 160.237 40.96ZM164.719 38.44V36.37H167.131V35.668H164.719V33.598H167.131V32.41H169.651V41.608H167.131V38.44H164.719ZM161.821 44.992C161.821 45.91 162.811 46.576 164.161 46.576C165.493 46.576 166.501 45.91 166.501 44.992C166.501 44.074 165.493 43.39 164.161 43.39C162.811 43.39 161.821 44.074 161.821 44.992ZM173.24 36.82C173.24 34.372 175.31 32.482 177.992 32.482C180.692 32.482 182.744 34.372 182.744 36.82C182.744 39.268 180.692 41.14 177.992 41.14C175.31 41.14 173.24 39.268 173.24 36.82ZM175.742 36.82C175.742 38.08 176.714 39.034 177.992 39.034C179.306 39.034 180.26 38.08 180.26 36.82C180.26 35.542 179.306 34.606 177.992 34.606C176.714 34.606 175.742 35.542 175.742 36.82ZM184.058 47.44V44.776C182.402 44.974 180.224 45.064 177.974 45.064H172.682V42.94H178.172C180.296 42.94 182.366 42.868 184.058 42.67V32.5H186.578V47.44H184.058ZM206.323 41.986V48.088H203.803V44.074H194.191V41.986H206.323ZM208.645 34.084V36.154H206.323V37.648H208.645V39.736H206.323V41.284H203.803V32.41H206.323V34.084H208.645ZM192.931 36.748C192.931 34.354 194.965 32.5 197.611 32.5C200.221 32.5 202.255 34.354 202.255 36.748C202.255 39.16 200.221 40.996 197.611 40.996C194.965 40.996 192.931 39.16 192.931 36.748ZM195.433 36.748C195.433 37.99 196.351 38.89 197.611 38.89C198.835 38.89 199.753 37.99 199.753 36.748C199.753 35.506 198.835 34.624 197.611 34.624C196.351 34.624 195.433 35.506 195.433 36.748ZM210.848 42.742H223.538V48.088H221V44.812H210.848V42.742ZM215.996 37.54H218.534V39.628H225.032V41.698H209.498V39.628H215.996V37.54ZM224.204 36.622L223.502 38.62C220.964 38.314 218.606 37.27 217.274 35.848C215.942 37.27 213.584 38.314 211.046 38.62L210.344 36.622C213.926 36.136 215.996 34.696 215.996 32.878V32.338H218.534V32.878C218.534 34.696 220.622 36.136 224.204 36.622Z" fill="white"/>
<path fill-rule="evenodd" clip-rule="evenodd" d="M27 54C41.9117 54 54 41.9117 54 27C54 12.0883 41.9117 0 27 0C12.0883 0 0 12.0883 0 27C0 41.9117 12.0883 54 27 54ZM36.4286 11.5C37.9378 11.5 38.8705 13.203 39.7852 16.2492L39.9681 16.8762C40.8263 19.9003 41.3571 23.4287 41.3571 26.7143C41.3571 30.9126 39.5588 34.0817 36.5009 36.0705L36.5 40C36.5 40.5172 36.2336 40.9979 35.795 41.272C33.9149 42.4471 31.8569 43.2121 29.7442 43.5656C28.9856 44.1516 28.0335 44.5 27 44.5C25.9656 44.5 25.0128 44.151 24.2528 43.5644C22.394 43.2517 20.5744 42.6209 18.8777 41.6702L18.5419 41.4769L18.2208 41.2817C17.818 41.0369 17.5564 40.6188 17.5081 40.1558L17.5 40L17.499 36.0704C14.4411 34.0816 12.6429 30.9125 12.6429 26.7143C12.6429 23.417 13.1689 19.8845 14.0201 16.8718C14.9894 13.4411 15.9502 11.5 17.5713 11.5C19.6733 11.5 21.9668 13.2107 24.7197 16.5446L24.799 16.642H29.276L29.6099 16.2349C32.1216 13.2097 34.2529 11.6087 36.2251 11.5053L36.4286 11.5ZM27 38.5C26.1716 38.5 25.5 39.1716 25.5 40C25.5 40.8284 26.1716 41.5 27 41.5C27.8284 41.5 28.5 40.8284 28.5 40C28.5 39.1716 27.8284 38.5 27 38.5ZM20.4987 37.5111L20.5 39.138L20.7004 39.2469C21.2856 39.553 21.8875 39.8137 22.5012 40.029L22.5 40C22.5 39.3358 22.6439 38.7052 22.9022 38.1378C22.0595 37.9801 21.2566 37.7706 20.4987 37.5111ZM33.5005 37.5114C32.7426 37.7709 31.9396 37.9803 31.0961 38.1385C31.3561 38.7052 31.5 39.3358 31.5 40C31.5 40.0088 31.5 40.0175 31.4999 40.0262C31.9698 39.8636 32.4329 39.6721 32.8867 39.454L33.2877 39.2531L33.5 39.138L33.5005 37.5114ZM18.065 14.596L17.9373 14.8417C17.6029 15.5173 17.2387 16.5138 16.9071 17.6875C16.1283 20.4438 15.6429 23.7037 15.6429 26.7143C15.6429 32.3723 19.9647 35.5 27 35.5C34.0353 35.5 38.3571 32.3723 38.3571 26.7143C38.3571 23.7176 37.8674 20.4627 37.0821 17.6952C36.7489 16.5213 36.3833 15.5212 36.0485 14.8411L36.0141 14.772L35.924 14.602L35.7567 14.6701C34.7432 15.121 33.2452 16.472 31.4132 18.7732L31.1821 19.0663C30.8978 19.4302 30.4618 19.6429 30 19.6429H24.0836C23.626 19.6429 23.1934 19.434 22.9089 19.0756C20.854 16.4877 19.1953 15.0222 18.1233 14.6167L18.065 14.596ZM28.1716 24C28.4823 24 28.7803 24.1234 29 24.3431C29.4575 24.8007 29.4575 25.5425 29 26L28.4142 26.5858C28.2921 26.7079 28.158 26.811 28.0158 26.8949C28.0987 26.9697 28.1745 27.0577 28.2413 27.1571L28.3163 27.2807C28.8849 28.3212 30.4795 29.2954 31.063 28.8287C31.7099 28.3112 32.6538 28.4161 33.1713 29.063C33.6888 29.7099 33.5839 30.6538 32.937 31.1713C31.0482 32.6822 28.7177 31.9537 27.0917 30.485L27.028 30.425L26.9227 30.5239C25.3745 31.9121 23.1176 32.6115 21.2513 31.3107L21.0828 31.1869C20.4273 30.6803 20.3065 29.7383 20.8131 29.0828C21.2899 28.4658 22.1524 28.3226 22.7987 28.7302L22.9172 28.8131C23.2612 29.0789 23.6807 29.0498 24.2989 28.6751C24.8406 28.3468 25.3848 27.7894 25.5928 27.4515L25.6447 27.3572C25.7319 27.1734 25.8476 27.0188 25.9826 26.8938C25.8413 26.8105 25.7077 26.7077 25.5858 26.5858L25 26C24.7803 25.7803 24.6569 25.4823 24.6569 25.1716C24.6569 24.5245 25.1814 24 25.8284 24H28.1716Z" fill="white"/>
</svg>
