<svg width="207" height="54" viewBox="0 0 207 54" fill="none" xmlns="http://www.w3.org/2000/svg">
<path d="M75.22 14.088C74.824 14.088 74.374 14.16 74.032 14.268L73.438 13.422L77.434 9.732H71.818V8.418H79.234V9.822L75.796 12.99C78.172 13.152 79.954 14.736 79.954 16.824C79.954 19.074 77.902 20.766 75.202 20.766C73.6 20.766 72.124 20.172 71.224 19.02L72.34 18.12C72.952 18.966 73.978 19.47 75.202 19.47C77.038 19.47 78.424 18.318 78.424 16.752C78.424 15.222 77.056 14.088 75.22 14.088ZM98.1118 11.586V12.846H95.5378V18.138H94.0438V7.572H95.5378V11.586H98.1118ZM90.8038 7.824V15.618H83.1358V7.824H90.8038ZM84.6298 14.358H89.3098V9.102H84.6298V14.358ZM96.0418 21.342V22.62H84.3058V17.4H85.7998V21.342H96.0418ZM110.09 12.918V14.16C108.578 14.34 106.688 14.448 104.726 14.466V17.58H103.25V14.466H99.6495V13.224H101.882C101.126 12.612 100.676 11.712 100.676 10.686C100.676 8.724 102.386 7.212 104.618 7.212C106.85 7.212 108.56 8.724 108.56 10.686C108.56 11.658 108.128 12.522 107.444 13.134C108.362 13.08 109.262 13.026 110.09 12.918ZM111.53 16.014V7.572H113.024V19.056H111.53V17.274H107.48V16.014H111.53ZM113.438 21.504V22.764H101.594V18.264H103.088V21.504H113.438ZM102.152 10.812C102.152 12.162 103.214 13.152 104.618 13.152C106.022 13.152 107.066 12.162 107.066 10.812C107.066 9.462 106.022 8.472 104.618 8.472C103.214 8.472 102.152 9.462 102.152 10.812ZM133.344 7.662V22.296H131.85V7.662H133.344ZM120.042 13.818C120.042 11.244 122.094 9.228 124.74 9.228C127.404 9.228 129.474 11.244 129.474 13.818C129.474 16.392 127.404 18.39 124.74 18.39C122.094 18.39 120.042 16.392 120.042 13.818ZM121.536 13.818C121.536 15.69 122.922 17.112 124.74 17.112C126.594 17.112 127.98 15.69 127.98 13.818C127.98 11.928 126.594 10.506 124.74 10.506C122.922 10.506 121.536 11.928 121.536 13.818ZM140.372 9.39V7.734H141.866V8.976C141.866 11.496 143.432 13.422 145.952 14.43L145.232 15.546C143.504 14.826 142.01 13.566 141.236 12.072C140.444 13.836 138.842 15.222 137.024 15.96L136.304 14.844C138.716 13.89 140.372 11.982 140.372 9.39ZM152.288 11.01V12.27H149.714V16.104H148.22V7.572H149.714V11.01H152.288ZM140.354 19.704C140.354 17.526 142.316 15.87 144.854 15.87C147.41 15.87 149.372 17.526 149.372 19.704C149.372 21.882 147.41 23.556 144.854 23.556C142.316 23.556 140.354 21.882 140.354 19.704ZM141.848 19.704C141.848 21.18 143.126 22.296 144.854 22.296C146.582 22.296 147.86 21.18 147.86 19.704C147.86 18.228 146.582 17.13 144.854 17.13C143.126 17.13 141.848 18.228 141.848 19.704ZM158.262 7.968H170.322V9.948C170.322 11.838 170.124 14.232 169.764 16.14H171.888V17.4H165.12V22.944H163.644V17.4H156.858V16.14H168.306C168.666 14.214 168.828 11.91 168.828 10.074V9.228H158.262V7.968ZM174.632 8.508H180.986V19.632H174.632V8.508ZM176.108 9.768V18.372H179.492V9.768H176.108ZM187.934 7.662V22.296H186.458V14.646H184.262V22.044H182.786V7.734H184.262V13.368H186.458V7.662H187.934ZM194.979 8.328H196.455V11.82C196.455 14.898 198.075 17.184 200.631 18.462L199.821 19.56C198.111 18.678 196.581 17.112 195.789 15.348C194.961 17.31 193.377 18.894 191.613 19.812L190.803 18.714C193.359 17.454 194.979 15.15 194.979 12.09V8.328ZM202.953 22.296V7.662H204.447V22.296H202.953ZM72.196 32.788H84.724V39.988H72.196V32.788ZM74.698 34.894V37.9H82.204V34.894H74.698ZM86.218 41.446V43.57H79.72V48.088H77.182V43.57H70.684V41.446H86.218ZM101.976 40.042V42.148H99.5277V44.254H103.146V46.378H87.6117V44.254H91.2297V42.148H89.1237V36.496H99.1137V35.074H89.1237V32.968H101.652V38.584H91.6437V40.042H101.976ZM97.0257 44.254V42.148H93.7497V44.254H97.0257ZM119.227 32.5V47.44H116.761V40.096H115.663V47.188H113.215V32.59H115.663V37.99H116.761V32.5H119.227ZM107.797 37.216H109.813V33.31H112.243V44.902H105.349V33.31H107.797V37.216ZM107.797 39.304V42.814H109.813V39.304H107.797ZM124.311 44.542C124.311 43.516 124.743 42.58 125.445 41.878H121.467V39.79H127.965V37.558H130.503V39.79H137.001V41.878H133.023C133.725 42.58 134.157 43.516 134.157 44.542C134.157 46.864 132.015 48.664 129.243 48.664C126.471 48.664 124.311 46.864 124.311 44.542ZM136.173 36.694L135.471 38.71C132.951 38.368 130.593 37.306 129.243 35.848C127.911 37.306 125.535 38.368 123.015 38.71L122.313 36.694C125.859 36.208 127.965 34.678 127.965 32.878V32.338H130.503V32.878C130.503 34.678 132.627 36.208 136.173 36.694ZM126.849 44.29C126.849 45.604 127.875 46.558 129.243 46.558C130.611 46.558 131.637 45.604 131.637 44.29C131.637 42.994 130.611 42.022 129.243 42.022C127.875 42.022 126.849 42.994 126.849 44.29Z" fill="white"/>
<path fill-rule="evenodd" clip-rule="evenodd" d="M28 54C42.9117 54 55 41.9117 55 27C55 12.0883 42.9117 0 28 0C13.0883 0 1 12.0883 1 27C1 41.9117 13.0883 54 28 54ZM45.9229 23.3203L33.49 10.8154C33.2483 10.5737 32.9217 10.4374 32.5797 10.4374H32.5771C32.2403 10.4374 31.9137 10.5711 31.672 10.8103L21.0417 21.3994C20.5377 21.9034 20.5377 22.716 21.0366 23.2174C21.538 23.7266 22.3531 23.7214 22.8546 23.2226L32.572 13.5411L43.192 24.2229L28.4963 38.8671L17.9509 38.6794L17.8789 28.188L19.2494 26.8226C19.7509 26.3186 19.7509 25.506 19.252 25.002C18.748 24.498 17.9329 24.5006 17.4314 24.9994L15.6777 26.7454C15.4334 26.9897 15.2997 27.3214 15.3023 27.6686L15.3897 39.9523C15.3949 40.6491 15.9554 41.2149 16.6523 41.2277L28.9977 41.4489H29.0209C29.3577 41.4489 29.6843 41.3126 29.926 41.076L45.9177 25.1383C46.4217 24.6369 46.4217 23.8243 45.9229 23.3203ZM28.1131 27.9591L27.9717 28.1006L27.9589 28.1109H27.9409L27.9254 28.1006L27.2131 27.3883C27.2029 27.378 27.1977 27.3651 27.2029 27.3574L27.2131 27.3394L27.352 27.198L27.424 27.1414C27.496 27.0926 27.5783 27.0746 27.6683 27.0849C27.7891 27.1003 27.91 27.1646 28.0334 27.288C28.1517 27.4063 28.2134 27.5246 28.2289 27.6454C28.2417 27.7663 28.2031 27.8691 28.1131 27.9591ZM27.4343 25.974C27.244 26.0177 27.064 26.1051 26.8994 26.2414L26.7811 26.3469L25.7063 27.4243L25.6909 27.45L25.6806 27.486L25.6909 27.5169L25.7063 27.5426L29.0903 30.924L29.1186 30.9471L29.1494 30.9523L29.1803 30.9471L29.2086 30.924L29.9183 30.2169L29.9363 30.1886L29.944 30.1577L29.9363 30.1243L29.9183 30.096L28.6069 28.7846L28.5991 28.7691V28.7537L28.6069 28.7331L28.684 28.6611L28.6969 28.6534L28.7097 28.6509L28.7303 28.6586L30.394 29.6409L30.4223 29.6511C30.4403 29.6563 30.4583 29.6537 30.4763 29.646L30.5174 29.6229L31.2451 28.89L31.2683 28.8643C31.276 28.8463 31.2786 28.8283 31.2709 28.8103L31.2503 28.7846L31.2246 28.7691L29.3397 27.7431L29.3294 27.738L29.3217 27.7277C29.3191 27.7174 29.3217 27.7097 29.3269 27.6994C29.3577 27.486 29.3346 27.27 29.2523 27.0566C29.1751 26.8406 29.0389 26.6349 28.8537 26.4497C28.6454 26.2389 28.414 26.0923 28.1697 26.0074C27.9203 25.9251 27.676 25.9123 27.4343 25.974ZM34.2794 20.2731L33.274 21.2786L33.2611 21.2966V21.312L33.274 21.33L33.9014 21.96L33.9194 21.9703H33.9374L33.9554 21.96L34.5006 21.4097L34.5289 21.3891L34.5623 21.384L34.5957 21.3891L34.6214 21.4097L35.218 22.0037L35.2386 22.0294L35.2437 22.0654L35.2386 22.0989L35.218 22.1271L34.6703 22.6749L34.6549 22.6929V22.7083L34.6703 22.7263L35.3029 23.3614L35.3209 23.3717H35.3363L35.3517 23.3614L36.3597 22.3534L36.388 22.338L36.4214 22.3303L36.4523 22.338L36.4806 22.3534L37.0669 22.9449L37.0874 22.9731L37.0926 23.004L37.0874 23.0374L37.0669 23.0657L35.2669 24.8683L35.2411 24.8863L35.2077 24.8914L35.1769 24.8863L35.1486 24.8683L31.7646 21.4869L31.7491 21.4586L31.7414 21.4251L31.7491 21.3917L31.7646 21.366L33.5671 19.5634L33.5954 19.5454L33.6289 19.5403L33.6597 19.5454L33.688 19.5634L34.2794 20.1523L34.2949 20.1806L34.3026 20.2114L34.2949 20.2474L34.2794 20.2731ZM30.3426 24.2074L31.348 23.202L31.3686 23.1789L31.3737 23.1454L31.3686 23.112L31.348 23.0863L30.7591 22.4923L30.7334 22.4743L30.7 22.4666L30.6666 22.4743L30.6383 22.4923L28.8357 24.2923L28.8177 24.3206L28.8126 24.354L28.8177 24.3849L28.8357 24.4131L32.2197 27.7971L32.2454 27.8151L32.2789 27.8203L32.3123 27.8151L32.3406 27.7971L34.1406 25.992L34.1611 25.9663L34.1663 25.9354L34.1611 25.902L34.1406 25.8763L33.5466 25.2849L33.5209 25.2669L33.49 25.2591L33.4566 25.2669L33.4283 25.2849L32.4254 26.2903L32.4074 26.3031H32.3894L32.374 26.2903L31.7389 25.6551L31.726 25.6423V25.6217L31.7389 25.6037L32.2891 25.056L32.3097 25.0251L32.3149 24.9969L32.3097 24.9634L32.2891 24.9351L31.6951 24.3411L31.6669 24.3206L31.6334 24.3154L31.6026 24.3206L31.5743 24.3411L31.024 24.8889L31.006 24.9017H30.988L30.9726 24.8889L30.3426 24.2589L30.3297 24.246V24.2254L30.3426 24.2074ZM25.3566 29.196L24.3537 30.1989L24.3409 30.2169V30.2349L24.3537 30.2477L24.9837 30.8803L24.9991 30.8906H25.0171L25.0326 30.8803L25.5829 30.33L25.6086 30.3094L25.642 30.3043L25.6754 30.3094L25.7037 30.33L26.2977 30.924L26.3183 30.9523L26.326 30.9857L26.3183 31.0191L26.2977 31.0449L25.75 31.5926L25.7371 31.6131V31.6311L25.75 31.6466L27.0614 32.9529L27.0794 32.9811L27.0846 33.0171L27.0794 33.048L27.0614 33.0737L26.3517 33.786L26.3234 33.8066L26.29 33.8117L26.2566 33.8066L26.2309 33.786L22.8469 30.402L22.8263 30.3737L22.8211 30.3429L22.8263 30.3094L22.8469 30.2811L24.6494 28.4837L24.6777 28.4631L24.7086 28.458L24.742 28.4631L24.7677 28.4837L25.3566 29.0751L25.3771 29.1009L25.3849 29.1343L25.3771 29.1677L25.3566 29.196ZM22.4483 36.3857C23.0397 35.7943 23.0397 34.8351 22.4483 34.2411C21.8543 33.6497 20.8951 33.6497 20.3037 34.2411C19.7097 34.8351 19.7097 35.7943 20.3037 36.3857C20.8951 36.9797 21.8543 36.9797 22.4483 36.3857Z" fill="white"/>
</svg>
