<svg width="201" height="54" viewBox="0 0 201 54" fill="none" xmlns="http://www.w3.org/2000/svg">
<path d="M80.314 9.768H76.894V11.91C76.894 14.934 78.496 17.166 81.016 18.48L80.206 19.56C78.586 18.732 77.02 17.22 76.192 15.384C75.418 17.31 73.798 18.93 72.106 19.812L71.278 18.732C73.798 17.418 75.4 15.186 75.4 12.18V9.768H71.98V8.508H80.314V9.768ZM79.576 14.178V12.918H83.176V7.662H84.67V22.296H83.176V14.178H79.576ZM100.104 12.99H95.9097V11.712H100.104V10.218H95.9097V8.94H100.104V7.572H101.598V16.482H100.104V12.99ZM92.4717 15.834H88.9077V7.734H90.4017V14.574H92.5977C94.4337 14.574 96.3957 14.448 97.9797 14.268V15.528C96.3957 15.726 94.4517 15.834 92.4717 15.834ZM101.598 17.67V22.944H100.104V18.948H89.9157V17.67H101.598ZM110.11 16.716C110.11 18.3 111.334 19.47 112.954 19.47C114.592 19.47 115.816 18.3 115.816 16.716C115.816 15.168 114.592 13.998 112.954 13.998C111.334 13.998 110.11 15.168 110.11 16.716ZM108.58 16.716C108.58 15.726 108.976 14.736 109.534 13.908L113.278 8.418H115.006L111.838 12.99C112.18 12.792 112.666 12.702 113.08 12.702C115.366 12.702 117.31 14.43 117.31 16.716C117.31 19.02 115.42 20.766 112.954 20.766C110.488 20.766 108.58 19.02 108.58 16.716ZM123.876 8.328H125.352V11.82C125.352 14.898 126.972 17.184 129.528 18.462L128.718 19.56C127.008 18.678 125.478 17.112 124.686 15.348C123.858 17.31 122.274 18.894 120.51 19.812L119.7 18.714C122.256 17.454 123.876 15.15 123.876 12.09V8.328ZM131.85 22.296V7.662H133.344V22.296H131.85ZM153.664 7.662V22.296H152.17V7.662H153.664ZM140.362 13.818C140.362 11.244 142.414 9.228 145.06 9.228C147.724 9.228 149.794 11.244 149.794 13.818C149.794 16.392 147.724 18.39 145.06 18.39C142.414 18.39 140.362 16.392 140.362 13.818ZM141.856 13.818C141.856 15.69 143.242 17.112 145.06 17.112C146.914 17.112 148.3 15.69 148.3 13.818C148.3 11.928 146.914 10.506 145.06 10.506C143.242 10.506 141.856 11.928 141.856 13.818ZM166.218 9.102H162.762V9.822C162.762 12.324 164.454 14.088 166.776 15.042L166.074 16.158C164.436 15.492 162.924 14.214 162.078 12.792C161.25 14.412 159.63 15.762 157.956 16.464L157.236 15.348C159.576 14.394 161.268 12.612 161.268 10.11V9.102H157.794V7.824H166.218V9.102ZM171.006 21.324V22.602H159.162V17.4H160.656V21.324H171.006ZM165.588 12.396V11.118H169.098V7.572H170.592V18.138H169.098V12.396H165.588ZM84.4 34.228H79.198C79.288 36.622 81.988 38.206 85.192 38.854L84.616 40.024C82.186 39.538 79.72 38.296 78.496 36.46C77.272 38.332 74.77 39.61 72.304 40.114L71.746 38.926C74.968 38.278 77.686 36.658 77.722 34.228H72.502V32.968H84.4V34.228ZM85.966 41.86V43.12H79.198V47.944H77.722V43.12H70.936V41.86H85.966ZM102.894 40.168V41.428H96.4857V44.722H94.9917V41.428H87.8637V40.168H102.894ZM89.4297 32.572H101.328V38.206H89.4297V32.572ZM90.9237 33.814V36.928H99.8337V33.814H90.9237ZM101.67 46.504V47.782H89.4297V43.066H90.9237V46.504H101.67ZM112.45 33.328H113.926V36.82C113.926 39.898 115.546 42.184 118.102 43.462L117.292 44.56C115.582 43.678 114.052 42.112 113.26 40.348C112.432 42.31 110.848 43.894 109.084 44.812L108.274 43.714C110.83 42.454 112.45 40.15 112.45 37.09V33.328ZM120.424 47.296V32.662H121.918V47.296H120.424ZM130.43 37.09C130.43 34.372 132.86 32.302 136.028 32.302C139.196 32.302 141.626 34.372 141.626 37.09C141.626 39.43 139.826 41.284 137.288 41.752V44.11H143.786V46.216H128.252V44.11H134.75V41.752C132.23 41.284 130.43 39.43 130.43 37.09ZM139.124 37.09C139.124 35.542 137.792 34.39 136.028 34.39C134.246 34.39 132.932 35.542 132.932 37.09C132.932 38.62 134.246 39.754 136.028 39.754C137.792 39.754 139.124 38.62 139.124 37.09ZM159.382 35.344V37.288H146.692V32.338H149.212V35.344H159.382ZM160.714 40.06H145.18V38.098H160.714V40.06ZM146.692 40.87H159.22V45.37H149.212V46.162H159.706V48.088H146.692V43.534H156.7V42.778H146.692V40.87ZM167.012 41.23H171.998V40.438H165.5V38.53H181.034V40.438H174.536V41.23H179.54V45.514H169.532V46.216H180.026V48.088H167.012V43.732H177.02V43.066H167.012V41.23ZM180.224 36.388L179.666 38.224C177.236 38.062 174.716 37.468 173.294 36.406C171.872 37.486 169.316 38.08 166.904 38.242L166.346 36.406C168.902 36.208 170.99 35.794 171.728 34.93H167.012V33.004H172.016V31.672H174.536V33.004H179.54V34.93H174.824C175.58 35.794 177.668 36.19 180.224 36.388ZM189.052 32.662H191.536V40.024H183.184V32.662H185.668V34.552H189.052V32.662ZM185.668 36.496V38.044H189.052V36.496H185.668ZM186.802 46.18H196.594V48.088H184.282V43.516H193.66V42.724H184.282V40.834H196.18V45.37H186.802V46.18ZM193.66 40.168V32.41H196.18V35.29H198.574V37.396H196.18V40.168H193.66Z" fill="white"/>
<path fill-rule="evenodd" clip-rule="evenodd" d="M26.8889 53.7829C41.7391 53.7829 53.7778 41.7391 53.7778 26.8914C53.7778 12.0438 41.7391 0 26.8889 0C12.0387 0 0 12.0438 0 26.8914C0 41.7391 12.0387 53.7829 26.8889 53.7829ZM37.1025 35.2902C36.5774 34.6581 35.8714 34.1916 35.0557 33.9775V29.5041H41.3058V35.2902H37.1025ZM34.0438 39.2589C33.2511 39.2589 32.6062 38.6141 32.6062 37.8213C32.6062 37.0261 33.2511 36.3786 34.0438 36.3786C34.8391 36.3786 35.4865 37.0261 35.4865 37.8213C35.4865 38.6141 34.8391 39.2589 34.0438 39.2589ZM21.2863 39.2589C20.4936 39.2589 19.8461 38.6141 19.8461 37.8213C19.8461 37.0261 20.4936 36.3786 21.2863 36.3786C22.0816 36.3786 22.7264 37.0261 22.7264 37.8213C22.7264 38.6141 22.0816 39.2589 21.2863 39.2589ZM15.0388 26.8354C16.4484 27.7887 18.1256 28.3647 19.9328 28.3647C24.3935 28.3647 28.0461 25.0103 28.5967 20.6975H32.5068V34.1432C31.9129 34.3904 31.4056 34.7881 30.9978 35.2775H24.3348C23.6007 34.4006 22.5149 33.8297 21.2863 33.8297C20.0577 33.8297 18.9718 34.4006 18.2377 35.2775H15.0388V26.8354ZM38.038 24.6687C38.4469 24.6687 38.6538 24.7679 38.7164 24.7979C38.7275 24.8032 38.7341 24.8064 38.7364 24.8064L40.4162 26.9552H35.0557V24.6687H38.038ZM43.582 26.871L40.7705 23.2745C40.6303 23.0808 39.8452 22.1198 38.038 22.1198H35.0557V19.423C35.0557 18.7195 34.4848 18.1485 33.7812 18.1485H28.5635C27.8702 13.9963 24.2788 10.8127 19.9328 10.8127C19.2293 10.8127 18.6583 11.3836 18.6583 12.0871C18.6583 12.7932 19.2293 13.3616 19.9328 13.3616C23.3688 13.3616 26.1599 16.1553 26.1599 19.5912C26.1599 23.0221 23.3688 25.8158 19.9328 25.8158C16.8052 25.8158 14.1518 23.4809 13.7592 20.3865C13.67 19.6856 12.9869 19.186 12.3369 19.2803C11.636 19.372 11.1415 20.0093 11.2307 20.7051C11.3913 21.9771 11.8501 23.1394 12.4899 24.1743V36.552C12.4899 37.2555 13.0608 37.8264 13.7643 37.8264H17.2972C17.2997 40.0211 19.0891 41.8079 21.2863 41.8079C23.4835 41.8079 25.2728 40.0211 25.2754 37.8264H30.0572C30.0598 40.0211 31.8491 41.8079 34.0438 41.8079C36.2384 41.8079 38.0227 40.0287 38.0329 37.8392H42.5802C43.2837 37.8392 43.8547 37.2682 43.8547 36.5647V27.6561C43.8547 27.3706 43.7604 27.0954 43.582 26.871ZM15.597 14.3149C16.2623 14.4296 16.897 13.9861 17.0168 13.3234C17.1315 12.6581 16.6905 12.026 16.0227 11.9062C15.3549 11.7889 14.7227 12.2324 14.6055 12.9002C14.4882 13.563 14.9318 14.1951 15.597 14.3149ZM12.9895 17.8299C13.6547 17.9446 14.2894 17.5036 14.4092 16.8384C14.5265 16.1731 14.0804 15.5384 13.4126 15.4212C12.7499 15.3039 12.1152 15.7474 11.9979 16.4127C11.8832 17.078 12.3267 17.7076 12.9895 17.8299ZM20.0144 21.3933L18.1536 20.1622C17.8452 19.9634 17.6515 19.6371 17.6082 19.2803L17.6005 19.1452V15.7245C17.6005 15.049 18.1511 14.501 18.824 14.501C19.4587 14.501 19.9761 14.9853 20.0399 15.5996L20.045 15.7245V18.485L21.3628 19.3516C21.8878 19.7008 22.0561 20.384 21.7782 20.9294L21.7094 21.0467C21.3628 21.5718 20.6796 21.7426 20.1291 21.4596L20.0144 21.3933Z" fill="#FFFFFE"/>
</svg>
