<svg width="246" height="54" viewBox="0 0 246 54" fill="none" xmlns="http://www.w3.org/2000/svg">
<path d="M85.084 21.342V22.62H73.24V17.4H74.734V21.342H85.084ZM83.176 18.138V7.572H84.67V18.138H83.176ZM76.516 7.734V9.39C76.516 12 78.208 13.89 80.602 14.952L79.846 16.068C78.208 15.33 76.696 14.034 75.868 12.504C75.058 14.25 73.456 15.672 71.71 16.428L70.954 15.33C73.366 14.25 75.022 12.36 75.022 9.786V7.734H76.516ZM102.012 21.342V22.62H90.1677V17.4H91.6617V21.342H102.012ZM96.3597 11.91V10.65H100.104V7.572H101.598V18.138H100.104V11.91H96.3597ZM93.4437 7.734V9.39C93.4437 12 95.1357 13.89 97.5297 14.952L96.7737 16.068C95.1357 15.33 93.6237 14.034 92.7957 12.504C91.9857 14.232 90.3837 15.672 88.6377 16.428L87.8817 15.33C90.2937 14.25 91.9497 12.36 91.9497 9.786V7.734H93.4437ZM105.655 12.918C105.655 11.82 106.177 10.866 107.005 10.218H104.791V8.976H108.895V7.05H110.389V8.976H114.421V10.218H112.297C113.125 10.866 113.647 11.82 113.647 12.918C113.647 14.934 111.901 16.464 109.651 16.464C107.401 16.464 105.655 14.934 105.655 12.918ZM118.471 21.342V22.62H106.735V17.706H108.229V21.342H118.471ZM107.131 12.738C107.131 14.16 108.229 15.222 109.651 15.222C111.091 15.222 112.171 14.16 112.171 12.738C112.171 11.316 111.091 10.218 109.651 10.218C108.229 10.218 107.131 11.316 107.131 12.738ZM120.541 11.838V13.098H117.967V18.264H116.473V7.572H117.967V11.838H120.541ZM129.108 8.328H130.602V11.82C130.602 14.898 132.204 17.184 134.778 18.462L133.968 19.56C132.258 18.678 130.728 17.112 129.918 15.348C129.108 17.31 127.524 18.894 125.742 19.812L124.95 18.714C127.506 17.454 129.108 15.15 129.108 12.09V8.328ZM140.952 13.368V14.646H138.378V22.296H136.884V7.662H138.378V13.368H140.952ZM155.846 15.546V16.806H153.218V19.902H157.07V21.18H142.04V19.902H145.892V16.806H143.606V11.82H154.01V9.408H143.606V8.148H155.504V13.08H145.1V15.546H155.846ZM151.724 19.902V16.806H147.386V19.902H151.724ZM163.485 20.766C160.965 20.766 159.039 19.308 159.039 17.346C159.039 15.852 160.083 14.844 161.793 13.926C160.767 12.882 160.155 12.036 160.155 11.01C160.155 9.408 161.577 8.22 163.485 8.22C165.375 8.22 166.815 9.408 166.815 11.01C166.815 12.432 165.663 13.494 164.007 14.232L167.157 17.364C167.733 16.41 168.039 15.186 168.039 13.836H169.569C169.569 15.564 169.065 17.148 168.165 18.39L170.361 20.568H168.471L167.265 19.38C166.275 20.244 164.979 20.766 163.485 20.766ZM163.485 19.488C164.619 19.488 165.555 19.092 166.311 18.408L162.711 14.844C161.325 15.582 160.569 16.374 160.569 17.346C160.569 18.588 161.811 19.488 163.485 19.488ZM161.757 10.992C161.757 11.748 162.099 12.36 163.053 13.314L163.287 13.206C164.547 12.666 165.285 11.91 165.285 11.01C165.285 10.146 164.511 9.516 163.485 9.516C162.423 9.516 161.757 10.128 161.757 10.992ZM172.572 16.374L172.032 15.168C176.316 14.232 178.71 11.982 178.728 9.102H172.806V7.824H180.222V8.994C180.222 12.756 177.144 15.366 172.572 16.374ZM187.62 11.586V12.846H185.046V18.138H183.552V7.572H185.046V11.586H187.62ZM185.55 21.342V22.62H173.814V17.4H175.308V21.342H185.55ZM202.531 17.328V22.944H201.037V18.606H190.849V17.328H202.531ZM201.037 16.14V7.572H202.531V16.14H201.037ZM194.377 7.734V9.174C194.377 11.73 196.015 13.674 198.463 14.736L197.707 15.852C196.087 15.132 194.575 13.854 193.747 12.342C192.937 14.052 191.353 15.474 189.571 16.266L188.815 15.15C191.191 14.142 192.883 12.198 192.883 9.624V7.734H194.377ZM86.218 41.536V43.66H82.78V47.998H80.278V43.66H76.642V47.998H74.122V43.66H70.684V41.536H86.218ZM73.186 36.496C73.186 34.03 75.49 32.122 78.46 32.122C81.412 32.122 83.716 34.03 83.716 36.496C83.716 38.98 81.412 40.87 78.46 40.87C75.49 40.87 73.186 38.98 73.186 36.496ZM75.706 36.496C75.706 37.792 76.876 38.764 78.46 38.764C80.026 38.764 81.196 37.792 81.196 36.496C81.196 35.2 80.026 34.228 78.46 34.228C76.876 34.228 75.706 35.2 75.706 36.496ZM90.5277 44.956C90.5277 44.092 90.8877 43.3 91.5177 42.67H87.6117V40.708H94.1097V39.718H89.1237V32.41H101.652V34.372H91.6437V35.146H101.472V37H91.6437V37.792H101.976V39.718H96.6477V40.708H103.146V42.67H99.2577C99.8697 43.3 100.248 44.092 100.248 44.956C100.248 47.062 98.1237 48.664 95.3877 48.664C92.6517 48.664 90.5277 47.062 90.5277 44.956ZM93.0297 44.668C93.0297 45.784 94.0377 46.63 95.3877 46.63C96.7197 46.63 97.7277 45.784 97.7277 44.668C97.7277 43.534 96.7197 42.688 95.3877 42.688C94.0377 42.688 93.0297 43.534 93.0297 44.668ZM116.347 47.44V32.5H118.867V47.44H116.347ZM106.033 45.226L104.845 43.3C108.895 41.716 111.451 39.16 111.451 35.434H105.871V33.31H113.971V35.308C113.971 40.024 110.767 43.408 106.033 45.226ZM122.259 38.044C122.259 37.18 122.565 36.406 123.087 35.794H121.485V33.778H125.337V31.888H127.839V33.778H131.619V35.794H130.089C130.611 36.406 130.935 37.18 130.935 38.044C130.935 40.15 129.063 41.752 126.597 41.752C124.149 41.752 122.259 40.15 122.259 38.044ZM135.669 45.658V47.764H123.375V42.418H125.895V45.658H135.669ZM137.613 36.424V38.548H135.273V43.462H132.753V32.41H135.273V36.424H137.613ZM124.743 37.774C124.743 38.89 125.517 39.736 126.597 39.736C127.695 39.736 128.469 38.89 128.469 37.774C128.469 36.64 127.695 35.812 126.597 35.812C125.517 35.812 124.743 36.64 124.743 37.774ZM149.546 35.74H147.206C147.332 37.576 148.43 38.962 150.248 39.898V32.5H152.696V35.812H153.938V32.41H156.404V41.572H153.938V37.936H152.696V41.572H150.248V39.934L148.898 41.626C147.764 41.014 146.738 40.114 146.054 39.196C145.37 40.294 144.254 41.248 143.03 41.932L141.68 40.186C143.588 39.232 144.704 37.738 144.722 35.74H142.382V33.688H144.722V31.888H147.206V33.688H149.546V35.74ZM156.404 42.238V48.088H153.884V44.326H143.804V42.238H156.404ZM173.043 41.554V47.908H160.983V41.554H173.043ZM163.485 45.838H170.559V43.642H163.485V45.838ZM170.523 40.87V32.41H173.043V40.87H170.523ZM159.327 36.622C159.327 34.3 161.379 32.5 164.025 32.5C166.653 32.5 168.705 34.3 168.705 36.622C168.705 38.944 166.653 40.744 164.025 40.744C161.379 40.744 159.327 38.944 159.327 36.622ZM161.829 36.622C161.829 37.792 162.747 38.656 164.025 38.656C165.267 38.656 166.203 37.792 166.203 36.622C166.203 35.47 165.267 34.606 164.025 34.606C162.747 34.606 161.829 35.47 161.829 36.622ZM183.599 35.434H181.241V37.054C181.241 39.736 182.339 41.896 184.337 43.282L182.717 44.938C181.637 44.146 180.701 43.066 180.053 41.95C179.387 43.174 178.379 44.344 177.263 45.172L175.643 43.516C177.641 42.13 178.739 39.988 178.739 37.288V35.434H176.363V33.31H183.599V35.434ZM182.411 39.718V37.594H184.481V32.59H186.947V47.206H184.481V39.718H182.411ZM190.331 32.5V47.458H187.865V32.5H190.331Z" fill="white"/>
<path fill-rule="evenodd" clip-rule="evenodd" d="M28.0013 54C42.9124 54 55 41.9124 55 27.0013C55 12.0876 42.9124 0 28.0013 0C13.0876 0 1 12.0876 1 27.0013C1 41.9124 13.0876 54 28.0013 54ZM36.6006 37.135C36.3074 37.183 36.0395 37.3346 35.8474 37.5596L34.2953 39.372L32.7509 36.0025L32.4829 35.4717C34.0476 34.8853 35.4581 34.0107 36.6689 32.9035L39.1663 36.7103L36.6006 37.135ZM22.9483 39.6172L21.3988 37.8023C21.2042 37.5773 20.9362 37.4282 20.643 37.3776L18.0799 36.953L20.231 33.6972C21.5555 34.6957 23.0646 35.4338 24.7152 35.8635L22.9483 39.6172ZM42.3487 36.9428L38.4181 30.9572C39.9701 28.8263 40.9129 26.2202 40.9129 23.3866C40.9129 16.2458 35.1067 10.437 27.9709 10.437C25.3573 10.437 22.8346 11.213 20.6885 12.6791C20.1122 13.0709 19.9631 13.8596 20.3549 14.4334C20.7542 15.0173 21.5429 15.1588 22.1091 14.767C23.8406 13.5866 25.8653 12.9648 27.9709 12.9648C33.7114 12.9648 38.3852 17.6411 38.3852 23.3866C38.3852 29.1296 33.7114 33.8009 27.9709 33.8009C22.2254 33.8009 17.5516 29.1296 17.5516 23.3866C17.5516 21.5009 18.0622 19.6531 19.0253 18.0379C19.3867 17.4388 19.1871 16.6628 18.5905 16.3039C17.9864 15.9399 17.2129 16.1396 16.859 16.7387C15.6583 18.7457 15.0239 21.0434 15.0239 23.3866C15.0239 26.6878 16.3029 29.6706 18.3453 31.9607L14.8975 37.188C14.6624 37.5444 14.6245 37.9944 14.7964 38.3887C14.9657 38.7805 15.3247 39.0586 15.7468 39.1293L19.776 39.7967L22.3164 42.7617C22.5565 43.0448 22.9104 43.204 23.2744 43.204C23.3351 43.204 23.3907 43.199 23.4513 43.1914C23.876 43.1333 24.245 42.8577 24.422 42.4659L26.75 37.3827L27.3137 36.2629C27.4101 36.2684 27.504 36.2814 27.5979 36.2945L27.598 36.2945C27.7208 36.3116 27.8434 36.3286 27.9709 36.3286C28.6585 36.3286 29.3207 36.23 29.9805 36.1264L32.8217 42.2208C32.9986 42.6151 33.3651 42.8881 33.7948 42.9462C33.853 42.9538 33.9111 42.9589 33.9692 42.9589C34.3332 42.9589 34.6871 42.7996 34.9298 42.5165L37.4702 39.554L41.4968 38.8841C41.919 38.8159 42.2779 38.5353 42.4473 38.1435C42.6217 37.7517 42.5812 37.2993 42.3487 36.9428ZM26.0751 21.2077C26.8815 21.0232 27.3896 20.2118 27.1949 19.4054C27.0129 18.6016 26.0751 17.5273 25.2637 17.7144C24.4574 17.8989 24.0833 19.274 24.2703 20.0829C24.4574 20.8917 25.2637 21.3922 26.0751 21.2077ZM30.4456 17.7068C31.257 17.8761 31.6538 19.2436 31.4794 20.0601C31.305 20.869 30.5113 21.3897 29.6999 21.2153C28.886 21.0409 28.3678 20.2446 28.5422 19.4358C28.6964 18.7002 29.4623 17.7396 30.213 17.6916H30.3293L30.4456 17.7068ZM34.4394 23.652C34.9753 23.0176 35.2609 21.6248 34.6265 21.0914C33.9945 20.5581 32.67 21.0864 32.1417 21.7234C31.6033 22.3578 31.6892 23.3082 32.3212 23.8391C32.9556 24.3775 33.9035 24.2915 34.4394 23.652ZM21.4949 23.652C20.9615 23.0176 20.6708 21.6248 21.3078 21.0914C21.9423 20.5581 23.2643 21.0864 23.8002 21.7234C24.336 22.3578 24.2476 23.3082 23.6131 23.8391C22.9761 24.3775 22.0308 24.2915 21.4949 23.652ZM24.2425 28.4345C25.299 29.0904 25.9885 28.7667 26.7051 28.4303C27.1373 28.2274 27.5793 28.0199 28.1175 28.0199C28.6533 28.0199 29.106 28.2248 29.5516 28.4264C30.2982 28.7642 31.0249 29.093 32.0886 28.4345C33.7847 27.388 31.5831 22.3806 28.1833 22.3806C24.7809 22.3806 22.5489 27.388 24.2425 28.4345Z" fill="#FFFFFE"/>
</svg>
